<svg width="38" height="11" viewBox="0 0 38 11" fill="none" xmlns="http://www.w3.org/2000/svg">
<path d="M0.0896683 10V2.17969H2.76984C3.65428 2.17969 4.32746 2.35693 4.78938 2.71143C5.25129 3.06592 5.48225 3.59408 5.48225 4.2959C5.48225 4.65397 5.38557 4.97624 5.19221 5.2627C4.99885 5.54915 4.71597 5.77116 4.34357 5.92871C4.7661 6.04329 5.09195 6.25993 5.32111 6.57861C5.55386 6.89372 5.67023 7.27327 5.67023 7.71729C5.67023 8.45133 5.43391 9.0153 4.96125 9.40918C4.49217 9.80306 3.819 10 2.94172 10H0.0896683ZM1.44855 6.47119V8.91504H2.95783C3.38394 8.91504 3.71695 8.80941 3.95686 8.59814C4.19676 8.38688 4.31672 8.09326 4.31672 7.71729C4.31672 6.90446 3.90135 6.4891 3.07063 6.47119H1.44855ZM1.44855 5.47217H2.78059C3.20311 5.47217 3.53254 5.37728 3.76887 5.1875C4.00878 4.99414 4.12873 4.72201 4.12873 4.37109C4.12873 3.98438 4.01773 3.70508 3.79572 3.5332C3.5773 3.36133 3.23534 3.27539 2.76984 3.27539H1.44855V5.47217ZM13.9303 6.29395C13.9303 7.06022 13.7978 7.7334 13.5329 8.31348C13.2679 8.88997 12.8883 9.33398 12.3942 9.64551C11.9036 9.95345 11.3379 10.1074 10.6969 10.1074C10.0631 10.1074 9.49739 9.95345 8.99967 9.64551C8.50553 9.33398 8.12239 8.89176 7.85025 8.31885C7.5817 7.74593 7.44563 7.08529 7.44205 6.33691V5.89648C7.44205 5.13379 7.57633 4.46061 7.84488 3.87695C8.11702 3.29329 8.49837 2.84749 8.98893 2.53955C9.48307 2.22803 10.0488 2.07227 10.6862 2.07227C11.3236 2.07227 11.8875 2.22624 12.3781 2.53418C12.8722 2.83854 13.2536 3.27897 13.5221 3.85547C13.7907 4.42839 13.9268 5.09619 13.9303 5.85889V6.29395ZM12.5714 5.88574C12.5714 5.01921 12.4067 4.35498 12.0773 3.89307C11.7515 3.43115 11.2878 3.2002 10.6862 3.2002C10.099 3.2002 9.63883 3.43115 9.30582 3.89307C8.97639 4.3514 8.8081 5.0013 8.80094 5.84277V6.29395C8.80094 7.15332 8.96744 7.81755 9.30045 8.28662C9.63704 8.7557 10.1025 8.99023 10.6969 8.99023C11.2985 8.99023 11.7604 8.76107 12.0827 8.30273C12.4085 7.8444 12.5714 7.1748 12.5714 6.29395V5.88574ZM20.7349 2.17969H22.0938V10H20.7349V4.43018L17.3027 10H15.9438V2.17969H17.3027V7.75488L20.7349 2.17969ZM20.7778 0.187012C20.7778 0.638184 20.6203 1.00342 20.3052 1.28271C19.9901 1.56201 19.5693 1.70166 19.043 1.70166C18.5166 1.70166 18.0959 1.56201 17.7808 1.28271C17.4657 1.00342 17.3081 0.638184 17.3081 0.187012H18.2856C18.2856 0.42334 18.3519 0.607747 18.4844 0.740234C18.6204 0.869141 18.8066 0.933594 19.043 0.933594C19.2793 0.933594 19.4637 0.869141 19.5962 0.740234C19.7287 0.607747 19.7949 0.42334 19.7949 0.187012H20.7778ZM30.0316 3.27539H27.5931V10H26.245V3.27539H23.828V2.17969H30.0316V3.27539ZM36.5138 2.17969H37.8727V10H36.5138V4.43018L33.0817 10H31.7228V2.17969H33.0817V7.75488L36.5138 2.17969Z" fill="black"/>
</svg>
